# xmcd CD database file generated by OrangeCD 5.1
#
# Track frame offsets:
#	182
#	14330
#	26572
#	41272
#	55980
#	70545
#	87180
#	104777
#	120050
#	132562
#
# Disc length: 2001 seconds
#
# Revision: 5
# Processed by: cddbd v1.4PL0 Copyright (c) Steve Scherf et al.
# Submitted via: OrangeCD 5.1
#
DISCID=7b07cf0a
DTITLE=Jim Stafford - Greatest Hits
DYEAR=1900
DGENRE=Country
TTITLE0=Spiders And Snakes
TTITLE1=Wildwood Weed
TTITLE2=My Girl Bill
TTITLE3=Turn Loose Of My Leg
TTITLE4=Cow Patti
TTITLE5=You Can Call Me Clyde
TTITLE6=Don't Forget The Hard Times
TTITLE7=Don't Fool Around When There's A Fool Around
TTITLE8=One Step Ahead Of The Law
TTITLE9=The Fight
EXTD=
EXTT0=
EXTT1=
EXTT2=
EXTT3=
EXTT4=
EXTT5=
EXTT6=
EXTT7=
EXTT8=
EXTT9=
PLAYORDER=
